<?xml version="1.0" encoding="iso-8859-1"?>
<!-- Generator: Adobe Illustrator 19.0.0, SVG Export Plug-In . SVG Version: 6.00 Build 0)  -->
<svg version="1.1" id="Layer_1" xmlns="http://www.w3.org/2000/svg" xmlns:xlink="http://www.w3.org/1999/xlink" x="0px" y="0px"
	 viewBox="0 0 512 512" style="enable-background:new 0 0 512 512;" xml:space="preserve">
<g>
	<g>
		<path d="M430.868,128.985l11.911-11.911c6.381-6.38,6.381-16.727,0-23.109c-6.38-6.38-16.727-6.38-23.109,0l-11.897,11.897
			c-36.815-32.035-83.818-52.639-135.433-56.257V32.681h4.357c9.024,0,16.34-7.316,16.34-16.34c0-9.024-7.316-16.34-16.34-16.34
			h-41.396c-9.024,0-16.34,7.316-16.34,16.34c0,9.024,7.316,16.34,16.34,16.34h4.357v16.924
			c-51.615,3.617-98.618,24.222-135.433,56.257L92.33,93.966c-6.38-6.38-16.727-6.38-23.109,0c-6.381,6.38-6.381,16.727,0,23.109
			l11.911,11.911c-35.257,40.633-56.622,93.631-56.622,151.525C24.511,408.154,128.356,512,256,512s231.489-103.846,231.489-231.489
			C487.489,222.617,466.125,169.619,430.868,128.985z M256,323.54c-23.726,0-43.03-19.303-43.03-43.03
			c0-17.944,11.044-33.351,26.689-39.798v-77.309c0-9.024,7.316-16.34,16.34-16.34c9.024,0,16.34,7.316,16.34,16.34v77.309
			c15.645,6.448,26.689,21.854,26.689,39.798C299.03,304.237,279.726,323.54,256,323.54z"/>
	</g>
</g>
<g>
</g>
<g>
</g>
<g>
</g>
<g>
</g>
<g>
</g>
<g>
</g>
<g>
</g>
<g>
</g>
<g>
</g>
<g>
</g>
<g>
</g>
<g>
</g>
<g>
</g>
<g>
</g>
<g>
</g>
</svg>
